<svg xmlns="http://www.w3.org/2000/svg" width="10" height="7" fill="none" xmlns:v="https://vecta.io/nano"><path d="M8.032.223c.164-.144.383-.224.61-.223s.444.084.606.231a.78.78 0 0 1 .262.555c.006.209-.076.413-.23.567L4.625 6.727c-.08.08-.177.143-.284.188s-.223.068-.341.07a.94.94 0 0 1-.344-.059c-.109-.041-.208-.101-.291-.178L.278 3.899c-.086-.074-.155-.163-.203-.262S.002 3.431 0 3.323s.02-.216.064-.317.11-.192.193-.269.182-.137.291-.178a.94.94 0 0 1 .343-.059c.117.002.233.026.341.07s.204.108.284.187l2.443 2.254L8.01.246c.007-.008.015-.016.023-.024h-.001z" fill="#f4f4fd"/></svg>