<svg xmlns="http://www.w3.org/2000/svg" width="18" height="24" fill="none" xmlns:v="https://vecta.io/nano"><g clip-path="url(#A)"><path d="M15 6H3a1.5 1.5 0 0 0-1.492 1.5l-.008 9c0 .825.675 1.5 1.5 1.5h12c.825 0 1.5-.675 1.5-1.5v-9c0-.825-.675-1.5-1.5-1.5zm-.3 3.188l-5.302 3.315a.76.76 0 0 1-.795 0L3.3 9.188a.64.64 0 0 1-.3-.54c0-.503.547-.803.975-.54L9 11.25l5.025-3.142c.428-.263.975.037.975.54a.64.64 0 0 1-.3.54z" fill="#2e2f42"/></g><defs><clipPath id="A"><path fill="#fff" d="M0 0h18v24H0z"/></clipPath></defs></svg>