<svg xmlns="http://www.w3.org/2000/svg" width="64" height="64" fill="none" xmlns:v="https://vecta.io/nano"><path d="M62.593 30.603C62.59 13.698 48.883-.003 31.978 0S1.372 13.711 1.375 30.616a30.61 30.61 0 0 0 21.299 29.152 1.23 1.23 0 0 0 .374.057 1.35 1.35 0 0 0 .685-.187c.27-.16.472-.414.566-.713l7.73-24.5c2.113-.011 3.817-1.733 3.806-3.846s-1.733-3.817-3.846-3.807c-.568.002-1.129.133-1.64.383L20.137 16.942c-.507-.489-1.314-.475-1.803.031-.478.495-.478 1.278 0 1.773l10.207 10.218c-.783 1.599-.335 3.528 1.073 4.618l-7.365 23.346C7.692 51.566.239 35.42 5.601 20.864S27.109-1.145 41.665 4.217s22.009 21.508 16.647 36.064c-2.62 7.111-8.002 12.862-14.924 15.947l-.796-3.748c-.145-.689-.823-1.129-1.512-.983a1.28 1.28 0 0 0-.585.296l-7.674 6.851c-.526.468-.573 1.274-.105 1.801a1.28 1.28 0 0 0 .566.368l9.797 3.127c.67.215 1.389-.153 1.604-.824.068-.212.08-.437.034-.655l-.782-3.678a30.51 30.51 0 0 0 18.658-28.178zm-30.609-1.275c.704 0 1.275.571 1.275 1.275s-.571 1.275-1.275 1.275-1.275-.571-1.275-1.275.571-1.275 1.275-1.275zm4.201 29.728l4.368-3.896 1.206 5.681-5.574-1.784z" fill="#2e2f42"/><path d="M30.709 6.37v2.551c0 .705.571 1.275 1.275 1.275s1.275-.571 1.275-1.275V6.37c0-.704-.571-1.275-1.275-1.275s-1.275.571-1.275 1.275zM7.752 29.327c-.705 0-1.275.571-1.275 1.275s.571 1.275 1.275 1.275h2.551c.705 0 1.275-.571 1.275-1.275s-.571-1.275-1.275-1.275H7.752zm48.464 2.551c.705 0 1.275-.571 1.275-1.275s-.571-1.275-1.275-1.275h-2.551c-.704 0-1.275.571-1.275 1.275s.571 1.275 1.275 1.275h2.551z" fill="#4d5ae5"/></svg>