<svg xmlns="http://www.w3.org/2000/svg" width="64" height="64" fill="none" xmlns:v="https://vecta.io/nano"><g clip-path="url(#A)"><g fill="#4d5ae5"><path d="M29.851 29.929h2.132v9.595h-2.132v-9.595zm8.529 4.265h2.132v5.331H38.38v-5.331zm-17.058 3.198h2.132v2.132h-2.132v-2.132zm-6.396-1.066h2.132v3.198h-2.132v-3.198z"/></g><path d="M3.198 56.582h51.173a3.2 3.2 0 0 0 3.198-3.198v-4.264a3.2 3.2 0 0 0-3.198-3.198h-1.066V19.334l6.056-5.737c1.405.693 3.107.272 4.026-.997s.791-3.017-.305-4.137a3.22 3.22 0 0 0-5.215 3.609l-4.563 4.325v-2.46a3.2 3.2 0 0 0-3.198-3.198H7.463a3.2 3.2 0 0 0-3.198 3.198v31.983H3.198A3.2 3.2 0 0 0 0 49.119v4.264a3.2 3.2 0 0 0 3.198 3.198zm57.57-46.909c.589 0 1.066.477 1.066 1.066s-.477 1.066-1.066 1.066-1.066-.477-1.066-1.066.477-1.066 1.066-1.066zM6.397 13.938c0-.589.477-1.066 1.066-1.066h42.644c.589 0 1.066.477 1.066 1.066v4.477l-2.132 2.026V16.07c0-.589-.477-1.066-1.066-1.066H9.595c-.589 0-1.066.477-1.066 1.066v26.653c0 .589.477 1.066 1.066 1.066h38.38c.589 0 1.066-.477 1.066-1.066V23.374l2.132-2.02v24.567H6.397V13.938zm9.595 13.859a3.2 3.2 0 0 0-1.642 5.948 3.2 3.2 0 0 0 3.856-.452l3.706 1.86c.431.215.953.114 1.273-.245l7.878-8.863 7.744 5.803c.415.311.995.278 1.372-.079l6.73-6.375v16.262H10.661v-24.52h36.248v5.321L39.366 29.6l-7.809-5.854c-.444-.332-1.068-.27-1.436.144l-7.986 8.985-2.985-1.493c.022-.128.035-.257.041-.387a3.2 3.2 0 0 0-3.198-3.198zm1.066 3.198c0 .589-.477 1.066-1.066 1.066s-1.066-.477-1.066-1.066.477-1.066 1.066-1.066 1.066.477 1.066 1.066zm6.397 17.058h10.661v1.066c0 .589-.477 1.066-1.066 1.066h-8.529c-.589 0-1.066-.477-1.066-1.066v-1.066zM2.132 49.119c0-.589.477-1.066 1.066-1.066h18.124v1.066a3.2 3.2 0 0 0 3.198 3.198h8.529a3.2 3.2 0 0 0 3.198-3.198v-1.066h18.124c.589 0 1.066.477 1.066 1.066v4.264c0 .589-.477 1.066-1.066 1.066H3.198c-.589 0-1.066-.477-1.066-1.066v-4.264z" fill="#2e2f42"/></g><defs><clipPath id="A"><path fill="#fff" d="M0 0h64v64H0z"/></clipPath></defs></svg>