<svg xmlns="http://www.w3.org/2000/svg" width="64" height="64" fill="none" xmlns:v="https://vecta.io/nano"><path d="M61.546 44.195L44.66 27.185l1.874-9.231c.484.189.998.287 1.517.291h.013a4.32 4.32 0 0 0 4.369-4.267 4.32 4.32 0 0 0-4.267-4.369 4.32 4.32 0 0 0-4.369 4.267c-.006.51.078 1.017.249 1.498l-9.92 1.211L17.945.32c-.198-.203-.469-.318-.753-.32s-.548.113-.747.31L13.42 3.318c-.416.417-.416 1.092 0 1.508l1.628 1.651c-6.306 11.596-4.258 25.956 5.039 35.326.085.082.184.148.292.195a6.19 6.19 0 0 0-.105 1.094v12.373h-12.8A5.34 5.34 0 0 0 2.141 60.8v2.133c0 .589.478 1.067 1.067 1.067h49.067c.589 0 1.067-.478 1.067-1.067V60.8a5.34 5.34 0 0 0-5.333-5.333h-12.8v-5.484c2.005.421 4.048.635 6.097.64a29.7 29.7 0 0 0 14.08-3.567l1.636 1.646c.198.203.469.318.753.32s.548-.113.747-.31l3.025-3.008c.416-.417.416-1.092 0-1.508zM46.56 12.466c.835-.831 2.186-.827 3.017.008s.827 2.186-.008 3.017c-.4.398-.941.621-1.505.621h-.006c-1.178-.006-2.128-.966-2.122-2.144.003-.564.229-1.104.629-1.501h-.004zm-2.511 7.009l-1.197 5.891-2.351-2.365 3.548-3.526zm-1.212-1.804l-3.84 3.818-2.971-2.987 6.811-.831zM48.008 57.6a3.2 3.2 0 0 1 3.2 3.2v1.067H4.275V60.8a3.2 3.2 0 0 1 3.2-3.2h40.533zm-14.933-4.267v2.133H22.408v-2.133h10.667zM22.408 51.2v-8.107c0-2.588 2.393-4.693 5.333-4.693s5.333 2.106 5.333 4.693V51.2H22.408zm12.8-3.392v-4.715c0-3.764-3.349-6.827-7.467-6.827a7.6 7.6 0 0 0-6.562 3.572 27.74 27.74 0 0 1-4.557-31.774l37.204 37.417a27.64 27.64 0 0 1-18.618 2.326zm22.578-1.367l-1.503-1.511L17.182 5.591l-1.509-1.513 1.509-1.504 15.87 15.959c.008 0 .012.014.019.019L59.3 44.937l-1.514 1.504z" fill="#2e2f42"/><path d="M27.751 40.533h-.01a3.2 3.2 0 1 0-.01 6.4h.01a3.2 3.2 0 1 0 .01-6.4zm.747 3.956c-.201.2-.473.311-.756.31-.589-.003-1.064-.483-1.061-1.072a1.07 1.07 0 0 1 .314-.751c.199-.197.467-.309.747-.31.589.003 1.064.483 1.061 1.072a1.07 1.07 0 0 1-.314.751h.01z" fill="#4d5ae5"/></svg>