<svg xmlns="http://www.w3.org/2000/svg" width="16" height="16" fill="none" xmlns:v="https://vecta.io/nano"><g clip-path="url(#A)" fill="#f4f4fd"><path d="M15.984 4.704c-.037-.85-.175-1.435-.372-1.941-.203-.538-.516-1.019-.925-1.419a3.94 3.94 0 0 0-1.416-.922C12.762.225 12.181.088 11.33.05L8.03 0 4.732.047c-.85.037-1.435.175-1.941.372-.538.203-1.019.516-1.419.925A3.94 3.94 0 0 0 .45 2.76C.253 3.27.116 3.851.078 4.701l-.05 3.301.047 3.298c.037.85.175 1.435.372 1.941.203.538.519 1.019.925 1.419a3.94 3.94 0 0 0 1.416.922c.51.197 1.091.334 1.941.372L8.027 16l3.298-.047c.85-.037 1.435-.175 1.941-.372 1.075-.416 1.925-1.266 2.341-2.341.197-.509.334-1.091.372-1.941l.047-3.298-.041-3.298zm-1.441 6.533c-.034.781-.166 1.203-.275 1.485-.269.697-.822 1.25-1.519 1.519-.281.109-.706.241-1.485.275l-3.232.047c-2.135 0-2.391-.009-3.232-.047-.781-.034-1.203-.166-1.485-.275a2.46 2.46 0 0 1-.919-.597 2.49 2.49 0 0 1-.597-.919c-.109-.281-.241-.706-.275-1.485l-.047-3.232.047-3.232c.034-.781.166-1.203.275-1.485a2.43 2.43 0 0 1 .6-.919c.259-.266.572-.469.919-.597.281-.109.706-.241 1.485-.275l3.232-.047 3.232.047c.781.034 1.203.166 1.485.275a2.46 2.46 0 0 1 .919.597 2.49 2.49 0 0 1 .597.919c.109.281.241.706.275 1.485l.047 3.232-.047 3.229zM8.03 3.891a4.11 4.11 0 1 0 0 8.22 4.11 4.11 0 1 0 0-8.22zm0 6.776c-1.472 0-2.666-1.194-2.666-2.666S6.558 5.335 8.03 5.335s2.666 1.194 2.666 2.666-1.194 2.666-2.666 2.666zm5.232-6.938a.96.96 0 1 1-1.92 0 .96.96 0 1 1 1.92 0z"/></g><defs><clipPath id="A"><path fill="#fff" d="M0 0h16v16H0z"/></clipPath></defs></svg>