<svg xmlns="http://www.w3.org/2000/svg" width="16" height="16" fill="none" xmlns:v="https://vecta.io/nano"><g clip-path="url(#A)" fill="#f4f4fd"><path d="M15.996 16v-.001H16v-5.868c0-2.871-.618-5.082-3.974-5.082-1.613 0-2.696.885-3.138 1.725h-.047V5.317H5.659v10.682h3.313V10.71c0-1.393.264-2.739 1.989-2.739 1.699 0 1.725 1.589 1.725 2.829V16h3.31zM.264 5.318h3.317V16H.264V5.318zM1.921 0A1.92 1.92 0 0 0 0 1.921C0 2.982.861 3.86 1.921 3.86s1.921-.879 1.921-1.939S2.981 0 1.921 0h0z"/></g><defs><clipPath id="A"><path fill="#fff" d="M0 0h16v16H0z"/></clipPath></defs></svg>