<svg xmlns="http://www.w3.org/2000/svg" width="18" height="24" fill="none" xmlns:v="https://vecta.io/nano"><g clip-path="url(#A)"><path d="M14.726 13.865l-1.838-.21a1.44 1.44 0 0 0-1.187.412l-1.332 1.332a10.89 10.89 0 0 1-4.769-4.769l1.339-1.339a1.44 1.44 0 0 0 .412-1.187l-.21-1.824A1.45 1.45 0 0 0 5.702 5H4.45c-.818 0-1.498.68-1.447 1.498a12.3 12.3 0 0 0 11.499 11.499c.818.051 1.498-.63 1.498-1.447v-1.252c.007-.731-.543-1.346-1.274-1.433z" fill="#2e2f42"/></g><defs><clipPath id="A"><path fill="#fff" d="M0 0h18v24H0z"/></clipPath></defs></svg>