<svg aria-hidden="true" style="position: absolute; width: 0; height: 0; overflow: hidden;" version="1.1" xmlns="http://www.w3.org/2000/svg" xmlns:xlink="http://www.w3.org/1999/xlink">
<defs>
<symbol id="icon-features_astronaut" viewBox="0 0 32 32">
<path fill="#4d5ae5" style="fill: var(--color1, #4d5ae5)" d="M31.974 4.524c-0.063-0.193-0.229-0.333-0.43-0.363l-1.91-0.278-0.855-1.731c-0.179-0.365-0.777-0.365-0.956 0l-0.855 1.731-1.91 0.278c-0.201 0.029-0.367 0.17-0.431 0.363-0.062 0.193-0.011 0.405 0.135 0.547l1.383 1.348-0.326 1.903c-0.034 0.2 0.048 0.402 0.212 0.522 0.166 0.121 0.382 0.135 0.562 0.040l1.709-0.899 1.709 0.899c0.078 0.041 0.164 0.061 0.249 0.061 0.11 0 0.221-0.034 0.314-0.102 0.164-0.119 0.246-0.322 0.212-0.522l-0.326-1.903 1.383-1.348c0.145-0.142 0.197-0.354 0.135-0.547zM29.511 5.851c-0.125 0.122-0.183 0.299-0.153 0.472l0.191 1.114-1-0.526c-0.078-0.041-0.163-0.061-0.249-0.061s-0.17 0.020-0.249 0.061l-1.001 0.526 0.191-1.114c0.030-0.173-0.028-0.349-0.153-0.472l-0.81-0.789 1.119-0.163c0.174-0.025 0.324-0.134 0.402-0.292l0.5-1.013 0.5 1.013c0.078 0.157 0.228 0.267 0.402 0.292l1.119 0.163-0.809 0.789z"></path>
<path fill="#4d5ae5" style="fill: var(--color1, #4d5ae5)" d="M26.133 20.522h-1.067v1.067h1.067v-1.067z"></path>
<path fill="#4d5ae5" style="fill: var(--color1, #4d5ae5)" d="M26.133 22.656h-1.067v1.067h1.067v-1.067z"></path>
<path fill="#4d5ae5" style="fill: var(--color1, #4d5ae5)" d="M27.2 21.589h-1.067v1.067h1.067v-1.067z"></path>
<path fill="#4d5ae5" style="fill: var(--color1, #4d5ae5)" d="M25.067 21.589h-1.067v1.067h1.067v-1.067z"></path>
<path fill="#4d5ae5" style="fill: var(--color1, #4d5ae5)" d="M22.4 26.389h-1.067v1.067h1.067v-1.067z"></path>
<path fill="#4d5ae5" style="fill: var(--color1, #4d5ae5)" d="M22.4 28.522h-1.067v1.067h1.067v-1.067z"></path>
<path fill="#4d5ae5" style="fill: var(--color1, #4d5ae5)" d="M23.467 27.456h-1.067v1.067h1.067v-1.067z"></path>
<path fill="#4d5ae5" style="fill: var(--color1, #4d5ae5)" d="M21.333 27.456h-1.067v1.067h1.067v-1.067z"></path>
<path fill="#4d5ae5" style="fill: var(--color1, #4d5ae5)" d="M16 24.256h-1.067v1.067h1.067v-1.067z"></path>
<path fill="#4d5ae5" style="fill: var(--color1, #4d5ae5)" d="M16 26.389h-1.067v1.067h1.067v-1.067z"></path>
<path fill="#4d5ae5" style="fill: var(--color1, #4d5ae5)" d="M17.067 25.322h-1.067v1.067h1.067v-1.067z"></path>
<path fill="#4d5ae5" style="fill: var(--color1, #4d5ae5)" d="M14.933 25.322h-1.067v1.067h1.067v-1.067z"></path>
<path fill="#4d5ae5" style="fill: var(--color1, #4d5ae5)" d="M5.867 6.122h-1.067v1.067h1.067v-1.067z"></path>
<path fill="#4d5ae5" style="fill: var(--color1, #4d5ae5)" d="M5.867 8.255h-1.067v1.067h1.067v-1.067z"></path>
<path fill="#4d5ae5" style="fill: var(--color1, #4d5ae5)" d="M6.933 7.189h-1.067v1.067h1.067v-1.067z"></path>
<path fill="#4d5ae5" style="fill: var(--color1, #4d5ae5)" d="M4.8 7.189h-1.067v1.067h1.067v-1.067z"></path>
<path fill="#2e2f42" style="fill: var(--color2, #2e2f42)" d="M24.715 14.159c-0.287-0.388-0.709-0.637-1.188-0.705-0.481-0.068-0.956 0.058-1.34 0.352l-1.252 0.96-1.898 1.417-1.358-0.541c2.421-1.086 4.114-3.508 4.114-6.32 0-3.823-3.123-6.933-6.961-6.933s-6.961 3.11-6.961 6.933c0 1.386 0.414 2.674 1.12 3.758l-2.764-0.024c-0.002 0-0.003 0-0.005 0-0.009 0-0.015 0.004-0.023 0.005-0.053 0.002-0.105 0.013-0.155 0.031-0.013 0.005-0.026 0.008-0.038 0.013-0.006 0.003-0.013 0.003-0.019 0.006l-3.233 1.596c-0.001 0-0.001 0-0.001 0.001l-1.893 0.911c-0.021 0.009-0.042 0.021-0.063 0.035-0.755 0.502-1.012 1.489-0.598 2.295 0.22 0.429 0.595 0.745 1.056 0.889 0.178 0.055 0.359 0.083 0.539 0.083 0.29 0 0.577-0.071 0.839-0.211l1.388-0.738 2.264-1.169 1.357-0.008-5.442 5.416c-0.001 0.001-0.001 0.001-0.002 0.001l-1.339 1.333c-0.316 0.315-0.49 0.732-0.49 1.178s0.174 0.863 0.49 1.179c0.325 0.323 0.752 0.485 1.179 0.485s0.854-0.162 1.18-0.485l1.314-1.309 1.741-1.3 0.901 0.897-1.762 1.754c-0 0.001-0.001 0.001-0.002 0.001l-1.339 1.333c-0.316 0.315-0.49 0.732-0.49 1.178s0.174 0.863 0.49 1.179c0.325 0.323 0.753 0.485 1.18 0.485s0.855-0.162 1.18-0.485l3.482-3.467c0.001-0.001 0.001-0.001 0.001-0.002l1.010-1-0.004-0.004c0.006-0.006 0.015-0.009 0.022-0.015l5.166-5.658 3.471 0.494c0.025 0.004 0.050 0.005 0.075 0.005 0.065 0 0.127-0.015 0.187-0.038 0.018-0.006 0.033-0.015 0.050-0.023 0.019-0.010 0.039-0.015 0.058-0.027l3.213-2.133c0.012-0.008 0.018-0.021 0.029-0.029 0.013-0.010 0.029-0.014 0.041-0.026l1.271-1.191c0.662-0.62 0.753-1.635 0.212-2.362zM2.13 17.77c-0.173 0.093-0.37 0.111-0.558 0.052-0.187-0.058-0.338-0.186-0.427-0.358-0.161-0.314-0.068-0.695 0.214-0.902l1.314-0.632 0.449 1.313-0.992 0.527zM5.628 15.942l-1.548 0.8-0.439-1.283 2.027-1.001-0.040 1.484zM20.727 9.322c0 0.918-0.219 1.785-0.599 2.559l-4.181-1.899c-0.044-0.573-0.341-1.075-0.788-1.388l1.464-4.86c2.378 0.756 4.105 2.974 4.105 5.588zM8.938 9.322c0-3.235 2.644-5.867 5.894-5.867 0.253 0 0.5 0.021 0.745 0.052l-1.432 4.754c-0.019-0.001-0.037-0.006-0.057-0.006-1.033 0-1.873 0.837-1.873 1.867s0.84 1.867 1.873 1.867c0.694 0 1.294-0.383 1.618-0.945l3.862 1.755c-1.075 1.446-2.795 2.39-4.737 2.39-3.25 0-5.894-2.632-5.894-5.867zM14.894 10.122c0 0.441-0.362 0.8-0.806 0.8s-0.806-0.359-0.806-0.8c0-0.441 0.362-0.8 0.806-0.8s0.806 0.359 0.806 0.8zM2.465 25.146c-0.236 0.234-0.619 0.234-0.854 0.001-0.114-0.114-0.176-0.263-0.176-0.423s0.062-0.309 0.176-0.421l0.962-0.958 0.851 0.848-0.959 0.955zM5.679 28.88c-0.236 0.234-0.619 0.235-0.855 0.001-0.114-0.114-0.176-0.263-0.176-0.423s0.062-0.309 0.176-0.421l0.963-0.959 0.852 0.848-0.96 0.955zM9.16 25.411c-0.001 0-0.001 0-0.002 0.001l-1.765 1.76-0.852-0.848 1.763-1.755c0 0 0 0 0-0s0.001-0.001 0.002-0.001c0.040-0.040 0.065-0.088 0.090-0.135 0.007-0.014 0.020-0.026 0.026-0.040 0.017-0.041 0.019-0.085 0.026-0.129 0.003-0.025 0.014-0.047 0.014-0.073 0-0.036-0.013-0.070-0.020-0.106-0.006-0.032-0.006-0.065-0.019-0.095-0.020-0.050-0.055-0.094-0.091-0.138-0.010-0.012-0.014-0.027-0.025-0.038 0 0 0 0-0.001 0s-0.001-0.002-0.001-0.002l-1.607-1.6c-0.017-0.017-0.039-0.024-0.058-0.038-0.028-0.022-0.055-0.042-0.087-0.058-0.030-0.015-0.061-0.024-0.093-0.033-0.034-0.010-0.067-0.017-0.103-0.020-0.033-0.002-0.063 0.001-0.095 0.005-0.036 0.004-0.069 0.009-0.104 0.020-0.034 0.011-0.063 0.027-0.094 0.045-0.020 0.011-0.042 0.015-0.061 0.029l-1.773 1.324-0.901-0.897 2.399-2.386 4.361 4.289-0.928 0.919zM15.979 18.394c-0.015-0.002-0.030 0.004-0.045 0.003-0.039-0.002-0.076 0.001-0.115 0.007-0.030 0.005-0.059 0.011-0.088 0.021-0.034 0.012-0.065 0.028-0.097 0.047-0.030 0.018-0.057 0.037-0.083 0.061-0.013 0.011-0.028 0.017-0.040 0.029l-4.698 5.146-4.328-4.257 2.833-2.818c0.209-0.208 0.21-0.546 0.002-0.755-0.105-0.105-0.243-0.157-0.381-0.156v-0.001l-2.219 0.013 0.028-1.607 3.104 0.027c1.265 1.294 3.029 2.101 4.981 2.101 0.437 0 0.864-0.045 1.279-0.123 0.040 0.032 0.079 0.065 0.13 0.085l2.41 0.96 0.152 0.758 0.178 0.885-3.003-0.427zM20.020 18.572l-0.313-1.558 1.446-1.080 0.947 1.257-2.080 1.381zM23.774 15.741l-0.838 0.785-0.931-1.236 0.831-0.637c0.155-0.119 0.351-0.168 0.543-0.143 0.193 0.027 0.364 0.128 0.48 0.284 0.217 0.292 0.18 0.699-0.085 0.947z"></path>
<path fill="#2e2f42" style="fill: var(--color2, #2e2f42)" d="M13.602 18.544l-2.143-2.133c-0.207-0.207-0.545-0.207-0.753 0l-2.142 2.133c-0.1 0.101-0.157 0.236-0.157 0.378s0.056 0.278 0.157 0.378l2.142 2.133c0.104 0.103 0.241 0.155 0.377 0.155s0.273-0.052 0.376-0.155l2.143-2.133c0.1-0.1 0.157-0.236 0.157-0.378s-0.057-0.278-0.157-0.378zM11.083 20.303l-1.387-1.381 1.387-1.381 1.387 1.381-1.387 1.381z"></path>
<path fill="#2e2f42" style="fill: var(--color2, #2e2f42)" d="M17.164 5.071l-0.258 1.036c0.071 0.018 1.738 0.452 1.738 2.149h1.067c-0-2.017-1.666-2.965-2.547-3.185z"></path>
<path fill="#2e2f42" style="fill: var(--color2, #2e2f42)" d="M19.711 9.322h-1.067v1.067h1.067v-1.067z"></path>
</symbol>
<symbol id="icon-facebook" viewBox="0 0 32 32">
<path fill="#f4f4fd" style="fill: var(--color3, #f4f4fd)" d="M21.33 5.314h2.922v-5.088c-0.506-0.070-2.238-0.226-4.258-0.226-4.212 0-7.096 2.65-7.096 7.518v4.482h-4.648v5.688h4.648v14.312h5.698v-14.31h4.46l0.708-5.688h-5.17v-3.92c0.002-1.644 0.444-2.77 2.734-2.77z"></path>
</symbol>
<symbol id="icon-features_antenna" viewBox="0 0 32 32">
<path fill="#2e2f42" style="fill: var(--color2, #2e2f42)" d="M30.773 22.098l-8.443-8.505 0.937-4.615c0.242 0.095 0.499 0.143 0.759 0.146h0.006c0.007 0 0.016 0 0.025 0 1.184 0 2.145-0.952 2.16-2.132v-0.001c0-0.007 0-0.016 0-0.025 0-1.184-0.952-2.145-2.132-2.16h-0.001c-0.007-0-0.016-0-0.025-0-1.184 0-2.145 0.952-2.16 2.132v0.001c-0.003 0.255 0.039 0.508 0.125 0.749l-4.96 0.605-8.091-8.133c-0.099-0.102-0.235-0.159-0.377-0.16s-0.274 0.057-0.373 0.155l-1.513 1.504c-0.208 0.208-0.208 0.546 0 0.754l0.814 0.825c-3.153 5.798-2.129 12.978 2.519 17.663 0.043 0.041 0.092 0.074 0.146 0.098-0.032 0.164-0.051 0.353-0.053 0.546v6.188h-6.4c-1.472 0.002-2.665 1.195-2.667 2.667v1.067c0 0.294 0.239 0.533 0.534 0.533h24.534c0.294 0 0.534-0.239 0.534-0.534v-1.067c-0.002-1.472-1.195-2.665-2.666-2.666h-6.4v-2.742c1.003 0.21 2.024 0.317 3.049 0.32 2.58-0.003 5.005-0.663 7.117-1.822l-0.077 0.039 0.818 0.823c0.099 0.102 0.235 0.159 0.377 0.16s0.274-0.056 0.373-0.155l1.512-1.504c0.208-0.209 0.208-0.546 0-0.754zM23.28 6.233c0.418-0.415 1.093-0.413 1.509 0.004s0.413 1.093-0.004 1.508c-0.2 0.199-0.471 0.311-0.753 0.311h-0.003c-0.589-0.003-1.064-0.483-1.061-1.072 0.002-0.282 0.114-0.552 0.314-0.75h-0.002zM22.024 9.738l-0.599 2.945-1.175-1.183 1.774-1.763zM21.419 8.835l-1.92 1.909-1.486-1.493 3.405-0.415zM24.004 28.8c0.884 0 1.6 0.716 1.6 1.6v0 0.534h-23.466v-0.534c0-0.884 0.716-1.6 1.6-1.6h20.267zM16.538 26.666v1.067h-5.334v-1.067h5.334zM11.204 25.6v-4.053c0-1.294 1.197-2.346 2.666-2.346s2.666 1.053 2.666 2.346v4.053h-5.333zM17.604 23.904v-2.357c0-1.882-1.675-3.413-3.733-3.413-0.017-0-0.038-0-0.058-0-1.353 0-2.54 0.707-3.213 1.771l-0.009 0.016c-2.36-2.482-3.811-5.846-3.811-9.55 0-2.314 0.567-4.496 1.569-6.414l-0.036 0.077 18.602 18.709c-1.823 0.947-3.979 1.502-6.266 1.502-1.079 0-2.129-0.124-3.136-0.357l0.093 0.018zM28.893 23.221l-21.056-21.181 0.755-0.752 7.935 7.979c0.004 0 0.006 0.007 0.009 0.009l13.114 13.192-0.757 0.752z"></path>
<path fill="#4d5ae5" style="fill: var(--color1, #4d5ae5)" d="M13.876 20.267h-0.005c-0.001 0-0.002 0-0.002 0-0.884 0-1.6 0.716-1.6 1.6s0.715 1.599 1.597 1.6h0.005c0.001 0 0.002 0 0.002 0 0.884 0 1.6-0.716 1.6-1.6s-0.715-1.599-1.597-1.6h-0zM14.249 22.244c-0.101 0.1-0.236 0.155-0.378 0.155-0.294-0.002-0.532-0.241-0.53-0.536 0.001-0.147 0.061-0.279 0.157-0.375v0c0.1-0.099 0.233-0.154 0.373-0.155 0.294 0.002 0.532 0.241 0.53 0.536-0.001 0.147-0.061 0.279-0.157 0.375v0h0.005z"></path>
</symbol>
<symbol id="icon-features_clock" viewBox="0 0 32 32">
<path fill="#2e2f42" style="fill: var(--color2, #2e2f42)" d="M31.297 15.302c-0.002-8.453-6.855-15.303-15.307-15.302s-15.303 6.856-15.302 15.308c0.002 6.788 4.422 12.543 10.541 14.545l0.108 0.031c0.055 0.018 0.119 0.029 0.185 0.029 0.001 0 0.001 0 0.002 0h-0c0.126-0 0.245-0.035 0.346-0.095l-0.003 0.002c0.135-0.080 0.236-0.207 0.283-0.357l3.865-12.25c1.056-0.006 1.909-0.866 1.903-1.923s-0.866-1.909-1.923-1.903c-0.284 0.001-0.565 0.066-0.82 0.191l-5.106-5.106c-0.254-0.245-0.657-0.238-0.902 0.015-0.239 0.248-0.239 0.639 0 0.886l5.104 5.109c-0.392 0.8-0.168 1.764 0.537 2.309l-3.682 11.673c-7.279-2.681-11.005-10.754-8.324-18.032s10.754-11.005 18.032-8.323 11.005 10.754 8.323 18.032c-1.31 3.555-4.001 6.431-7.462 7.973l-0.398-1.874c-0.073-0.345-0.412-0.564-0.756-0.491-0.114 0.025-0.213 0.077-0.293 0.149l0.001-0.001-3.837 3.425c-0.263 0.234-0.287 0.637-0.052 0.901 0.075 0.084 0.17 0.147 0.278 0.183l0.005 0.001 4.899 1.564c0.335 0.107 0.695-0.076 0.802-0.412 0.034-0.106 0.040-0.218 0.017-0.328l-0.391-1.839c5.528-2.374 9.329-7.772 9.329-14.057 0-0.011 0-0.023-0-0.034v0.002zM15.992 14.664c0.352 0 0.637 0.286 0.637 0.637s-0.285 0.637-0.637 0.637-0.637-0.286-0.637-0.637 0.286-0.637 0.637-0.637zM18.093 29.528l2.184-1.948 0.603 2.84-2.787-0.892z"></path>
<path fill="#4d5ae5" style="fill: var(--color1, #4d5ae5)" d="M15.354 3.185v1.275c0 0.353 0.286 0.638 0.637 0.638s0.638-0.285 0.638-0.638v-1.276c0-0.352-0.285-0.638-0.637-0.638s-0.637 0.285-0.637 0.638zM3.876 14.664c-0.353 0-0.637 0.286-0.637 0.637s0.285 0.637 0.638 0.637h1.276c0.353 0 0.638-0.286 0.638-0.637s-0.285-0.637-0.638-0.637h-1.276zM28.108 15.939c0.352 0 0.637-0.286 0.637-0.637s-0.285-0.637-0.637-0.637h-1.276c-0.352 0-0.637 0.286-0.637 0.637s0.285 0.637 0.637 0.637h1.276z"></path>
</symbol>
<symbol id="icon-features_diagram" viewBox="0 0 32 32">
<path fill="#4d5ae5" style="fill: var(--color1, #4d5ae5)" d="M14.925 14.964h1.066v4.798h-1.066v-4.797zM19.19 17.097h1.066v2.666h-1.066v-2.666zM10.661 18.696h1.066v1.066h-1.066v-1.066zM7.463 18.163h1.066v1.599h-1.066v-1.599z"></path>
<path fill="#2e2f42" style="fill: var(--color2, #2e2f42)" d="M1.599 28.291h25.587c0.883-0.001 1.598-0.716 1.599-1.599v-2.132c-0.001-0.883-0.716-1.598-1.599-1.599h-0.533v-13.294l3.028-2.869c0.703 0.346 1.553 0.136 2.013-0.498s0.395-1.508-0.152-2.068c-0.292-0.295-0.697-0.478-1.145-0.478-0.889 0-1.61 0.721-1.61 1.61 0 0.244 0.054 0.475 0.151 0.682l-0.004-0.010-2.282 2.163v-1.23c-0.001-0.883-0.716-1.598-1.599-1.599h-21.322c-0.883 0.001-1.598 0.716-1.599 1.599v15.992h-0.534c-0.883 0.001-1.599 0.716-1.599 1.599v2.132c0.001 0.883 0.716 1.598 1.599 1.599h0zM30.384 4.837c0.294 0 0.533 0.239 0.533 0.533s-0.238 0.533-0.533 0.533-0.533-0.239-0.533-0.533 0.238-0.533 0.533-0.533zM3.199 6.969c0-0.295 0.239-0.533 0.533-0.533h21.322c0.294 0 0.533 0.239 0.533 0.533v2.238l-1.066 1.013v-2.185c0-0.295-0.238-0.533-0.533-0.533h-19.19c-0.295 0-0.533 0.239-0.533 0.533v13.326c0 0.294 0.239 0.533 0.533 0.533h19.19c0.294 0 0.533-0.238 0.533-0.533v-9.675l1.066-1.010v12.284h-22.388v-15.992zM7.996 13.899c-0 0-0.001 0-0.001 0-0.884 0-1.6 0.716-1.6 1.6 0 0.581 0.31 1.090 0.773 1.37l0.007 0.004c0.233 0.141 0.515 0.224 0.816 0.224 0.432 0 0.825-0.171 1.113-0.45l-0 0 1.853 0.93c0.216 0.108 0.476 0.057 0.636-0.122l3.939-4.431 3.872 2.902c0.207 0.156 0.497 0.139 0.686-0.040l3.365-3.188v8.131h-18.124v-12.26h18.124v2.661l-3.771 3.572-3.905-2.927c-0.222-0.166-0.534-0.135-0.718 0.072l-3.993 4.492-1.492-0.746c0.011-0.064 0.018-0.129 0.021-0.194-0.001-0.883-0.716-1.598-1.599-1.599h-0zM8.529 15.498c0 0.294-0.239 0.533-0.533 0.533s-0.533-0.239-0.533-0.533 0.239-0.533 0.533-0.533 0.533 0.239 0.533 0.533zM11.727 24.026h5.331v0.533c0 0.294-0.238 0.533-0.533 0.533h-4.264c-0.294 0-0.533-0.238-0.533-0.533v-0.533zM1.066 24.559c0-0.294 0.238-0.533 0.533-0.533h9.062v0.533c0.001 0.883 0.716 1.598 1.599 1.599h4.265c0.883-0.001 1.598-0.716 1.599-1.599v-0.533h9.062c0.294 0 0.533 0.238 0.533 0.533v2.132c0 0.294-0.238 0.533-0.533 0.533h-25.587c-0.294 0-0.533-0.238-0.533-0.533v-2.132z"></path>
</symbol>
<symbol id="icon-instagram" viewBox="0 0 32 32">
<path fill="#f4f4fd" style="fill: var(--color3, #f4f4fd)" d="M31.968 9.408c-0.074-1.7-0.35-2.87-0.744-3.882-0.406-1.076-1.032-2.038-1.85-2.838-0.78-0.792-1.724-1.419-2.778-1.826l-0.054-0.018c-1.018-0.394-2.18-0.668-3.882-0.744l-6.6-0.1-6.596 0.094c-1.7 0.074-2.87 0.35-3.882 0.744-1.076 0.406-2.038 1.032-2.838 1.85-0.792 0.78-1.419 1.724-1.826 2.778l-0.018 0.054c-0.394 1.020-0.668 2.182-0.744 3.882l-0.1 6.602 0.094 6.596c0.074 1.7 0.35 2.87 0.744 3.882 0.406 1.076 1.038 2.038 1.85 2.838 0.78 0.792 1.724 1.419 2.778 1.826l0.054 0.018c1.020 0.394 2.182 0.668 3.882 0.744l6.596 0.092 6.596-0.094c1.7-0.074 2.87-0.35 3.882-0.744 2.15-0.832 3.85-2.532 4.682-4.682 0.394-1.018 0.668-2.182 0.744-3.882l0.094-6.596-0.082-6.596zM29.086 22.474c-0.068 1.562-0.332 2.406-0.55 2.97-0.538 1.394-1.644 2.5-3.038 3.038-0.562 0.218-1.412 0.482-2.97 0.55l-6.464 0.094c-4.27 0-4.782-0.018-6.464-0.094-1.562-0.068-2.406-0.332-2.97-0.55-0.721-0.269-1.335-0.676-1.837-1.193l-0.001-0.001c-0.516-0.504-0.923-1.118-1.183-1.804l-0.011-0.034c-0.218-0.562-0.482-1.412-0.55-2.97l-0.094-6.464 0.094-6.464c0.068-1.562 0.332-2.406 0.55-2.97 0.269-0.722 0.678-1.337 1.198-1.836l0.002-0.002c0.518-0.532 1.144-0.938 1.838-1.194 0.562-0.218 1.412-0.482 2.97-0.55l6.464-0.094 6.464 0.094c1.562 0.068 2.406 0.332 2.97 0.55 0.721 0.269 1.335 0.676 1.837 1.193l0.001 0.001c0.516 0.504 0.923 1.118 1.183 1.804l0.011 0.034c0.218 0.562 0.482 1.412 0.55 2.97l0.094 6.464-0.094 6.458zM16.060 7.782c-4.54 0-8.22 3.68-8.22 8.22s3.68 8.22 8.22 8.22v0c4.54 0 8.22-3.68 8.22-8.22s-3.68-8.22-8.22-8.22v0zM16.060 21.334c-2.944 0-5.332-2.388-5.332-5.332s2.388-5.332 5.332-5.332 5.332 2.388 5.332 5.332-2.388 5.332-5.332 5.332zM26.524 7.458c0 1.060-0.86 1.92-1.92 1.92s-1.92-0.86-1.92-1.92v0c0-1.060 0.86-1.92 1.92-1.92s1.92 0.86 1.92 1.92v0z"></path>
</symbol>
<symbol id="icon-linkedin" viewBox="0 0 32 32">
<path fill="#f4f4fd" style="fill: var(--color3, #f4f4fd)" d="M31.992 32v-0.002h0.008v-11.736c0-5.742-1.236-10.164-7.948-10.164-3.226 0-5.392 1.77-6.276 3.45h-0.094v-2.914h-6.364v21.364h6.626v-10.578c0-2.786 0.528-5.478 3.978-5.478 3.398 0 3.45 3.178 3.45 5.658v10.4h6.62zM0.528 10.636h6.634v21.364h-6.634v-21.364zM3.842 0c-0.001 0-0.001 0-0.002 0-2.121 0-3.84 1.719-3.84 3.84 0 0.001 0 0.001 0 0.002v-0c0 2.122 1.722 3.878 3.842 3.878s3.842-1.758 3.842-3.878-1.722-3.842-3.842-3.842v0z"></path>
</symbol>
<symbol id="icon-twitter" viewBox="0 0 32 32">
<path fill="#f4f4fd" style="fill: var(--color3, #f4f4fd)" d="M32 6.078c-1.1 0.494-2.376 0.858-3.712 1.029l-0.068 0.007c1.36-0.816 2.382-2.078 2.873-3.58l0.013-0.046c-1.268 0.756-2.668 1.29-4.16 1.588-1.204-1.282-2.92-2.076-4.792-2.076-3.621 0.002-6.556 2.938-6.556 6.56 0 0.001 0 0.001 0 0.002v-0c0 0.52 0.044 1.020 0.152 1.496-5.454-0.266-10.28-2.88-13.522-6.862-0.566 0.982-0.898 2.106-0.898 3.316 0 2.272 1.17 4.286 2.914 5.452-1.092-0.030-2.109-0.326-2.997-0.825l0.033 0.017v0.072c0 3.188 2.274 5.836 5.256 6.446-0.534 0.146-1.116 0.216-1.72 0.216-0.031 0.001-0.067 0.001-0.103 0.001-0.403 0-0.796-0.041-1.176-0.119l0.037 0.006c0.85 2.598 3.262 4.508 6.13 4.57-2.214 1.744-5.044 2.798-8.12 2.798-0.005 0-0.010 0-0.015 0h0.001c-0.538 0-1.054-0.024-1.57-0.090 2.906 1.874 6.35 2.944 10.064 2.944 12.072 0 18.672-10 18.672-18.668-0.001-0.301-0.010-0.597-0.026-0.891l0.002 0.043c1.302-0.924 2.396-2.078 3.288-3.406z"></path>
</symbol>
</defs>
</svg>
