<svg xmlns="http://www.w3.org/2000/svg" width="16" height="16" fill="none" xmlns:v="https://vecta.io/nano"><path d="M16 3.039a6.84 6.84 0 0 1-1.89.518 3.26 3.26 0 0 0 1.443-1.813c-.634.378-1.334.645-2.08.794-.602-.641-1.46-1.038-2.396-1.038a3.28 3.28 0 0 0-3.278 3.281c0 .26.022.51.076.748-2.727-.133-5.14-1.44-6.761-3.431-.283.491-.449 1.053-.449 1.658 0 1.136.585 2.143 1.457 2.726A3.24 3.24 0 0 1 .64 6.078v.036c0 1.594 1.137 2.918 2.628 3.223-.267.073-.558.108-.86.108a2.9 2.9 0 0 1-.621-.056c.425 1.299 1.631 2.254 3.065 2.285a6.59 6.59 0 0 1-4.067 1.399c-.269 0-.527-.012-.785-.045 1.453.937 3.175 1.472 5.032 1.472 6.036 0 9.336-5 9.336-9.334a8.37 8.37 0 0 0-.012-.424c.651-.462 1.198-1.039 1.644-1.703z" fill="#f4f4fd"/></svg>